<svg xmlns="http://www.w3.org/2000/svg" width="140" height="140" viewBox="5 0 90 105" fill="currentColor" stroke="inherit"><path d="M50 8.183c-.376 0-.667.041-1.022.113-1.42.265-2.625 1.009-3.41 2.16-.018.025.019.086 0 .113-.173.266-.442.493-.568.796-.014.029.011.084 0 .113-.118.303-.275.573-.34.91-.088.387-.114.835-.114 1.25 0 .363.123 1.09.34 1.817-4.95.728-8.92 2.546-11.818 5.455a13.07 13.07 0 00-1.931 2.386c-1.141 1.728-1.902 3.75-2.273 6.023-.015.075.01.152 0 .227-.163 1.072-.341 2.105-.341 3.296-.002.118 0 .222 0 .34-.01 1.97-.033 3.902-.227 5.796-.008.075.007.153 0 .228a57.729 57.729 0 01-.91 5.681c-.014.073.015.155 0 .228-.803 3.786-2.11 7.454-3.636 11.023-.388.954-.702 1.94-1.136 2.84-.227.464-.442.912-.682 1.364-.22.422-.45.84-.682 1.25-.018.03.018.084 0 .114-.946 1.668-2.057 3.161-3.182 4.659-.018.026.019.088 0 .113-2.276 3.018-5.046 5.656-8.068 8.182 0 .455.038.87.113 1.25.008.038-.007.076 0 .114.075.34.204.713.341 1.023.015.033-.014.08 0 .113.145.31.36.602.568.91.24.353.466.701.796 1.022 1.218 1.182 2.652 1.818 4.318 1.818H39.091c0 .345.08.684.113 1.023a10.91 10.91 0 00.114.682 10.91 10.91 0 000 .227c.022.11-.026.232 0 .34a10.91 10.91 0 00.455 1.364c.06.162.159.295.227.455a10.91 10.91 0 003.636 4.659c.11.082.229.15.34.227a10.91 10.91 0 001.478.91c.109.05.23.065.34.112a10.91 10.91 0 001.82.569c.712.169 1.4.324 2.158.34a10.91 10.91 0 0010.455-7.273 10.91 10.91 0 00.568-1.931 10.91 10.91 0 00.114-1.705H83.864c1.669 0 3.1-.636 4.318-1.818C89.4 77.909 90 76.5 90 74.886c-6.091-5.004-10.641-11.075-13.75-18.41-3.11-7.363-4.773-15.152-4.773-23.295 0-5.128-1.47-9.26-4.546-12.273-2.898-2.84-6.869-4.622-11.818-5.341.218-.59.34-1.267.34-1.932A5.456 5.456 0 0050 8.181z"></path></svg>